<?xml version="1.0" standalone="no"?>
<!DOCTYPE svg PUBLIC "-//W3C//DTD SVG 20010904//EN"
 "http://www.w3.org/TR/2001/REC-SVG-20010904/DTD/svg10.dtd">
<svg version="1.0" xmlns="http://www.w3.org/2000/svg"
 width="354.000000pt" height="86.000000pt" viewBox="0 0 354.000000 86.000000"
 preserveAspectRatio="xMidYMid meet">

<g transform="translate(0.000000,86.000000) scale(0.100000,-0.100000)"
fill="#000000" stroke="none">
<path d="M622 740 c-55 -34 -62 -66 -62 -275 0 -208 8 -243 59 -269 45 -24
121 -21 162 7 62 41 69 69 69 277 0 204 -4 220 -59 257 -45 30 -122 31 -169 3z
m116 -72 c17 -17 17 -369 0 -386 -17 -17 -65 -15 -72 4 -3 9 -6 95 -6 193 0
186 3 201 45 201 12 0 26 -5 33 -12z"/>
<path d="M1783 744 c-53 -26 -77 -105 -53 -170 6 -15 47 -62 90 -104 70 -67
80 -80 80 -111 0 -19 -5 -40 -12 -47 -30 -30 -78 0 -78 49 0 28 -2 29 -46 29
l-47 0 5 -50 c6 -56 26 -86 75 -106 69 -30 161 -7 188 47 8 15 15 50 15 77 0
60 -31 110 -102 167 -58 46 -84 91 -74 129 5 22 12 26 40 26 35 0 46 -13 46
-51 0 -16 7 -19 45 -19 44 0 45 1 45 33 0 17 -6 43 -13 57 -27 54 -136 77
-204 44z"/>
<path d="M100 439 l0 -311 31 6 c17 3 38 6 45 6 11 0 14 36 15 193 l1 192 31
-189 31 -188 43 5 c24 2 46 6 48 9 2 2 17 89 32 193 l28 190 3 -190 2 -190 45
3 45 4 0 289 0 290 -67 -3 -67 -3 -28 -180 c-15 -99 -29 -189 -30 -200 -2 -11
-19 71 -37 183 l-34 202 -68 0 -69 0 0 -311z"/>
<path d="M883 738 c2 -7 24 -129 48 -270 l44 -258 60 0 c33 0 66 4 73 9 9 5
30 100 58 257 24 137 43 255 44 262 0 8 -15 12 -45 12 -25 0 -45 -3 -45 -7 0
-5 -15 -98 -34 -208 -24 -143 -35 -191 -39 -170 -4 17 -18 100 -32 185 -36
221 -27 200 -86 200 -37 0 -50 -4 -46 -12z"/>
<path d="M1250 485 l0 -265 50 0 50 0 0 265 0 265 -50 0 -50 0 0 -265z"/>
<path d="M1420 490 l0 -260 130 0 130 0 0 40 0 40 -80 0 -80 0 0 75 0 75 66 0
65 0 -3 38 -3 37 -62 3 -63 3 0 69 0 70 80 0 80 0 0 35 0 35 -130 0 -130 0 0
-260z"/>
<path d="M2190 484 l0 -266 115 4 c110 3 116 4 142 31 l28 27 3 188 c2 113 -1
198 -7 215 -19 50 -64 67 -178 67 l-103 0 0 -266z m188 12 c2 -116 -1 -173 -9
-182 -6 -8 -27 -14 -45 -14 l-34 0 0 186 0 185 43 -3 42 -3 3 -169z"/>
<path d="M2606 733 c-3 -10 -23 -124 -46 -253 -23 -129 -43 -243 -46 -252 -5
-15 2 -18 44 -18 l49 0 7 47 6 48 53 -4 c56 -3 67 -12 67 -53 0 -38 25 -58 71
-58 36 0 39 2 34 22 -2 13 -23 131 -45 263 -22 132 -43 248 -46 258 -4 14 -17
17 -74 17 -57 0 -70 -3 -74 -17z m88 -203 c9 -58 19 -115 22 -127 4 -21 1 -23
-41 -23 -39 0 -46 3 -41 18 3 9 13 68 22 129 10 62 19 112 20 110 1 -1 9 -49
18 -107z"/>
<path d="M2830 710 l0 -40 50 0 50 0 0 -245 0 -245 50 0 50 0 0 245 0 245 45
0 45 0 0 40 0 40 -145 0 -145 0 0 -40z"/>
<path d="M3195 718 c-3 -18 -25 -149 -49 -290 -47 -281 -48 -268 20 -268 30 0
34 3 34 28 0 64 8 72 66 72 59 0 55 4 69 -81 5 -34 8 -37 52 -43 25 -3 48 -5
49 -3 2 2 -15 118 -36 258 -22 140 -44 277 -48 304 l-7 50 -72 3 -72 3 -6 -33z
m94 -238 c11 -74 19 -136 17 -138 -2 -1 -21 0 -43 4 l-39 6 20 139 c12 77 22
136 23 132 2 -4 12 -69 22 -143z"/>
</g>
</svg>
