<?xml version="1.0" standalone="no"?>
<!DOCTYPE svg PUBLIC "-//W3C//DTD SVG 20010904//EN"
 "http://www.w3.org/TR/2001/REC-SVG-20010904/DTD/svg10.dtd">
<svg version="1.0" xmlns="http://www.w3.org/2000/svg"
 width="354.000000pt" height="86.000000pt" viewBox="0 0 354.000000 86.000000"
 preserveAspectRatio="xMidYMid meet">

<g transform="translate(0.000000,86.000000) scale(0.100000,-0.100000)"
fill="#000000" stroke="none">
<path d="M630 742 c-62 -31 -70 -61 -70 -275 0 -218 8 -249 69 -274 45 -19
124 -12 159 14 55 40 62 71 62 271 0 204 -6 228 -63 262 -40 25 -110 26 -157
2z m108 -74 c17 -17 17 -369 0 -386 -17 -17 -65 -15 -72 4 -3 9 -6 95 -6 193
0 186 3 201 45 201 12 0 26 -5 33 -12z"/>
<path d="M1783 744 c-36 -18 -63 -67 -63 -113 0 -50 33 -101 103 -163 72 -64
92 -102 73 -139 -24 -49 -86 -26 -86 32 0 28 -2 29 -46 29 l-47 0 5 -50 c6
-56 26 -86 75 -106 69 -30 161 -7 188 47 21 40 19 117 -4 155 -10 17 -46 55
-79 84 -66 58 -88 96 -78 135 5 21 12 25 40 25 35 0 46 -13 46 -51 0 -16 7
-19 45 -19 44 0 45 1 45 33 0 17 -6 43 -13 57 -27 54 -136 77 -204 44z"/>
<path d="M100 439 l0 -311 31 6 c17 3 38 6 45 6 11 0 14 36 15 193 l1 192 31
-189 31 -188 44 5 c23 2 45 6 47 8 2 2 16 90 32 194 l28 190 3 -187 2 -188 45
0 45 0 0 290 0 291 -67 -3 -67 -3 -28 -180 c-15 -99 -29 -189 -30 -200 -2 -11
-19 71 -37 183 l-34 202 -68 0 -69 0 0 -311z"/>
<path d="M929 479 l46 -271 67 4 c37 2 70 7 74 10 5 6 93 493 94 521 0 4 -20
7 -44 7 l-44 0 -11 -61 c-5 -33 -20 -126 -32 -205 -13 -79 -24 -142 -26 -140
-2 2 -17 84 -34 182 -41 249 -31 224 -88 224 l-48 0 46 -271z"/>
<path d="M1250 484 l0 -265 48 3 47 3 3 263 2 262 -50 0 -50 0 0 -266z"/>
<path d="M1420 490 l0 -260 130 0 130 0 0 40 0 40 -80 0 -80 0 0 75 0 74 63 3
62 3 0 35 0 35 -65 3 -65 3 1 67 2 67 81 3 81 3 0 34 0 35 -130 0 -130 0 0
-260z"/>
<path d="M2192 488 l3 -263 112 0 c110 0 113 1 140 28 l28 27 3 190 c4 265 -5
280 -188 280 l-100 0 2 -262z m186 8 c2 -116 -1 -173 -9 -182 -6 -8 -27 -14
-45 -14 l-34 0 0 186 0 185 43 -3 42 -3 3 -169z"/>
<path d="M2605 728 c-3 -13 -23 -124 -45 -248 -22 -124 -42 -235 -45 -247 -5
-22 -2 -23 45 -23 48 0 50 1 50 28 0 63 7 69 63 64 56 -5 67 -13 67 -52 0 -40
14 -52 64 -57 45 -6 47 -5 42 18 -3 13 -24 132 -46 264 -23 132 -43 248 -46
258 -4 14 -17 17 -74 17 -64 0 -70 -2 -75 -22z m89 -198 c9 -58 19 -115 22
-127 4 -21 1 -23 -41 -23 -39 0 -46 3 -41 18 3 9 13 68 22 129 10 62 19 112
20 110 1 -1 9 -49 18 -107z"/>
<path d="M2830 710 l0 -40 50 0 50 0 0 -245 0 -245 50 0 51 0 -1 243 -1 242
45 3 46 3 0 40 0 39 -145 0 -145 0 0 -40z"/>
<path d="M3195 718 c-3 -18 -25 -149 -49 -290 -42 -255 -42 -257 -22 -262 12
-3 33 -6 47 -6 24 0 27 4 32 51 4 29 8 53 9 53 2 1 27 0 56 -2 56 -4 53 -1 67
-83 5 -34 8 -37 52 -43 25 -3 48 -5 49 -3 2 2 -1 30 -6 63 -6 32 -26 163 -46
289 -19 127 -37 238 -40 248 -4 14 -17 17 -74 17 l-69 0 -6 -32z m94 -232 c12
-76 20 -141 18 -143 -3 -2 -22 -1 -44 3 l-39 6 20 139 c11 76 21 137 22 136 1
-1 11 -65 23 -141z"/>
</g>
</svg>
